<svg aria-hidden="true" style="position: absolute; width: 0; height: 0; overflow: hidden;" version="1.1" xmlns="http://www.w3.org/2000/svg" xmlns:xlink="http://www.w3.org/1999/xlink">
<defs>
<symbol id="icon-arrow-thick-down" viewBox="0 0 20 20">
<path d="M7 10v-8h6v8h5l-8 8-8-8h5z"></path>
</symbol>
<symbol id="icon-arrow-thick-left" viewBox="0 0 20 20">
<path d="M10 13h8v-6h-8v-5l-8 8 8 8v-5z"></path>
</symbol>
<symbol id="icon-arrow-thick-right" viewBox="0 0 20 20">
<path d="M10 7h-8v6h8v5l8-8-8-8v5z"></path>
</symbol>
<symbol id="icon-arrow-thick-up" viewBox="0 0 20 20">
<path d="M7 10v8h6v-8h5l-8-8-8 8h5z"></path>
</symbol>
<symbol id="icon-cheveron-down" viewBox="0 0 20 20">
<path d="M9.293 12.95l0.707 0.707 5.657-5.657-1.414-1.414-4.243 4.242-4.243-4.242-1.414 1.414z"></path>
</symbol>
<symbol id="icon-cheveron-left" viewBox="0 0 20 20">
<path d="M7.050 9.293l-0.707 0.707 5.657 5.657 1.414-1.414-4.242-4.243 4.242-4.243-1.414-1.414z"></path>
</symbol>
<symbol id="icon-cheveron-right" viewBox="0 0 20 20">
<path d="M12.95 10.707l0.707-0.707-5.657-5.657-1.414 1.414 4.242 4.243-4.242 4.243 1.414 1.414 4.95-4.95z"></path>
</symbol>
<symbol id="icon-cheveron-up" viewBox="0 0 20 20">
<path d="M10.707 7.050l-0.707-0.707-5.657 5.657 1.414 1.414 4.243-4.242 4.243 4.242 1.414-1.414z"></path>
</symbol>
<symbol id="icon-flag" viewBox="0 0 20 20">
<path d="M7.667 12h-5.667v8h-2v-20h12l0.333 2h7.667l-3 6 3 6h-12l-0.333-2z"></path>
</symbol>
<symbol id="icon-mood-happy-outline" viewBox="0 0 20 20">
<path d="M10 20c-5.523 0-10-4.477-10-10s4.477-10 10-10v0c5.523 0 10 4.477 10 10s-4.477 10-10 10v0zM10 18c4.418 0 8-3.582 8-8s-3.582-8-8-8v0c-4.418 0-8 3.582-8 8s3.582 8 8 8v0zM6.5 9c-0.828 0-1.5-0.672-1.5-1.5s0.672-1.5 1.5-1.5v0c0.828 0 1.5 0.672 1.5 1.5s-0.672 1.5-1.5 1.5v0zM13.5 9c-0.828 0-1.5-0.672-1.5-1.5s0.672-1.5 1.5-1.5v0c0.828 0 1.5 0.672 1.5 1.5s-0.672 1.5-1.5 1.5v0zM15.66 12c-0.846 2.355-3.060 4.009-5.66 4.009s-4.814-1.654-5.647-3.967l-0.013-0.042h11.32z"></path>
</symbol>
<symbol id="icon-mood-neutral-outline" viewBox="0 0 20 20">
<path d="M10 20c-5.523 0-10-4.477-10-10s4.477-10 10-10v0c5.523 0 10 4.477 10 10s-4.477 10-10 10v0zM10 18c4.418 0 8-3.582 8-8s-3.582-8-8-8v0c-4.418 0-8 3.582-8 8s3.582 8 8 8v0zM6.5 9c-0.828 0-1.5-0.672-1.5-1.5s0.672-1.5 1.5-1.5v0c0.828 0 1.5 0.672 1.5 1.5s-0.672 1.5-1.5 1.5v0zM13.5 9c-0.828 0-1.5-0.672-1.5-1.5s0.672-1.5 1.5-1.5v0c0.828 0 1.5 0.672 1.5 1.5s-0.672 1.5-1.5 1.5v0zM7 13h6c0.552 0 1 0.448 1 1s-0.448 1-1 1v0h-6c-0.552 0-1-0.448-1-1s0.448-1 1-1v0z"></path>
</symbol>
<symbol id="icon-mood-sad-outline" viewBox="0 0 20 20">
<path d="M10 20c-5.523 0-10-4.477-10-10s4.477-10 10-10v0c5.523 0 10 4.477 10 10s-4.477 10-10 10v0zM10 18c4.418 0 8-3.582 8-8s-3.582-8-8-8v0c-4.418 0-8 3.582-8 8s3.582 8 8 8v0zM6.5 9c-0.828 0-1.5-0.672-1.5-1.5s0.672-1.5 1.5-1.5v0c0.828 0 1.5 0.672 1.5 1.5s-0.672 1.5-1.5 1.5v0zM13.5 9c-0.828 0-1.5-0.672-1.5-1.5s0.672-1.5 1.5-1.5v0c0.828 0 1.5 0.672 1.5 1.5s-0.672 1.5-1.5 1.5v0zM15.66 15h-11.32c0.846-2.355 3.060-4.009 5.66-4.009s4.814 1.654 5.647 3.967l0.013 0.042z"></path>
</symbol>
<symbol id="icon-tag" viewBox="0 0 20 20">
<path d="M0 10v-8l2-2h8l10 10-10 10-10-10zM4.5 6c0.828 0 1.5-0.672 1.5-1.5s-0.672-1.5-1.5-1.5v0c-0.828 0-1.5 0.672-1.5 1.5s0.672 1.5 1.5 1.5v0z"></path>
</symbol>
<symbol id="icon-arrow-up-left" viewBox="0 0 32 32">
<path d="M0 23l8-8 17 17 7-7-17-17 8-8h-23v23z"></path>
</symbol>
<symbol id="icon-arrow-up-right" viewBox="0 0 32 32">
<path d="M9 0l8 8-17 17 7 7 17-17 8 8v-23h-23z"></path>
</symbol>
<symbol id="icon-arrow-down-right" viewBox="0 0 32 32">
<path d="M32 9l-8 8-17-17-7 7 17 17-8 8h23v-23z"></path>
</symbol>
<symbol id="icon-arrow-down-left" viewBox="0 0 32 32">
<path d="M23 32l-8-8 17-17-7-7-17 17-8-8v23h23z"></path>
</symbol>
<symbol id="icon-wifi-low" viewBox="0 0 24 24">
<path d="M12 8.92c-1.959 0-3.732 0.794-5.016 2.078l1.416 1.416c0.922-0.923 2.195-1.494 3.6-1.494s2.678 0.571 3.6 1.494l1.416-1.416c-1.284-1.284-3.057-2.078-5.016-2.078zM12 13.079c-0.828 0-1.5 0.673-1.5 1.501s0.672 1.5 1.5 1.5 1.5-0.672 1.5-1.5-0.672-1.501-1.5-1.501z"></path>
</symbol>
<symbol id="icon-wifi-mid" viewBox="0 0 24 24">
<path d="M6.984 12.918l1.416 1.416c0.922-0.922 2.195-1.494 3.6-1.494s2.678 0.572 3.6 1.494l1.416-1.416c-1.284-1.284-3.057-2.078-5.016-2.078s-3.732 0.794-5.016 2.078zM12 6.277c-3.219 0-6.133 1.305-8.242 3.414l1.418 1.418c1.748-1.749 4.162-2.832 6.824-2.832s5.076 1.083 6.824 2.832l1.418-1.418c-2.109-2.109-5.023-3.414-8.242-3.414zM12 15c-0.828 0-1.5 0.672-1.5 1.5s0.672 1.5 1.5 1.5 1.5-0.672 1.5-1.5-0.672-1.5-1.5-1.5z"></path>
</symbol>
<symbol id="icon-wifi-full" viewBox="0 0 24 24">
<path d="M6.984 15.918l1.416 1.416c0.922-0.922 2.195-1.494 3.6-1.494s2.678 0.572 3.6 1.494l1.416-1.416c-1.284-1.283-3.057-2.078-5.016-2.078s-3.732 0.795-5.016 2.078zM3.758 12.691l1.418 1.418c1.748-1.749 4.162-2.832 6.824-2.832s5.076 1.083 6.824 2.832l1.418-1.418c-2.109-2.109-5.023-3.414-8.242-3.414s-6.133 1.305-8.242 3.414zM12 4.715c-4.479 0-8.533 1.815-11.469 4.751l1.419 1.419c2.575-2.575 6.13-4.17 10.050-4.17s7.475 1.595 10.050 4.17l1.419-1.419c-2.936-2.936-6.99-4.751-11.469-4.751zM12 18c-0.828 0-1.5 0.672-1.5 1.5s0.672 1.5 1.5 1.5 1.5-0.672 1.5-1.5-0.672-1.5-1.5-1.5z"></path>
</symbol>
<symbol id="icon-battery-charging" viewBox="0 0 24 24">
<path d="M20.812 8c-0.412-1.164-1.523-2-2.826-2h-14.988c-1.653 0-2.998 1.346-2.998 3v7c0 1.654 1.345 3 2.998 3h14.987c1.303 0 2.414-0.836 2.826-2h2.169v-9h-2.168zM18.983 16c0 0.551-0.447 1-0.998 1h-14.987c-0.552 0-1-0.449-1-1v-7c0-0.551 0.448-1 1-1h14.987c0.551 0 0.998 0.449 0.998 1v7zM20.982 15h-0.999v-5h0.999v5zM10.097 15l0.998-2h4.996l-5.994-3-1 2h-4.996l5.996 3z"></path>
</symbol>
<symbol id="icon-battery-empty" viewBox="0 0 24 24">
<path d="M20.82 8c-0.412-1.164-1.523-2-2.826-2h-14.987c-1.653 0-2.997 1.346-2.997 3v7c0 1.654 1.344 3 2.997 3h14.987c1.303 0 2.414-0.836 2.826-2h2.17v-9h-2.17zM18.994 16c0 0.551-0.449 1-1 1h-14.987c-0.552 0-0.999-0.449-0.999-1v-7c0-0.551 0.447-1 0.999-1h14.987c0.551 0 1 0.449 1 1v7zM20.992 15h-1v-5h1v5z"></path>
</symbol>
<symbol id="icon-battery-25" viewBox="0 0 24 24">
<path d="M20.82 8c-0.412-1.164-1.523-2-2.826-2h-14.987c-1.653 0-2.997 1.346-2.997 3v7c0 1.654 1.344 3 2.997 3h14.987c1.303 0 2.414-0.836 2.826-2h2.17v-9h-2.17zM18.994 16c0 0.551-0.449 1-1 1h-14.987c-0.552 0-0.999-0.449-0.999-1v-7c0-0.551 0.447-1 0.999-1h14.987c0.551 0 1 0.449 1 1v7zM20.992 15h-1v-5h1v5zM3.007 11v3c0 1.1 0.674 2 1.499 2h1.498v-7h-1.498c-0.825 0-1.499 0.9-1.499 2z"></path>
</symbol>
<symbol id="icon-battery-50" viewBox="0 0 24 24">
<path d="M20.82 8c-0.412-1.164-1.523-2-2.826-2h-14.987c-1.653 0-2.997 1.346-2.997 3v7c0 1.654 1.344 3 2.997 3h14.987c1.303 0 2.414-0.836 2.826-2h2.17v-9h-2.17zM18.994 16c0 0.551-0.449 1-1 1h-14.987c-0.552 0-0.999-0.449-0.999-1v-7c0-0.551 0.447-1 0.999-1h14.987c0.551 0 1 0.449 1 1v7zM20.992 15h-1v-5h1v5zM7.003 9h2.998v7h-2.998zM3.007 11v3c0 1.1 0.674 2 1.499 2h1.498v-7h-1.498c-0.825 0-1.499 0.9-1.499 2z"></path>
</symbol>
<symbol id="icon-battery-75" viewBox="0 0 24 24">
<path d="M20.82 8c-0.412-1.164-1.523-2-2.826-2h-14.987c-1.653 0-2.997 1.346-2.997 3v7c0 1.654 1.344 3 2.997 3h14.987c1.303 0 2.414-0.836 2.826-2h2.17v-9h-2.17zM18.994 16c0 0.551-0.449 1-1 1h-14.987c-0.552 0-0.999-0.449-0.999-1v-7c0-0.551 0.447-1 0.999-1h14.987c0.551 0 1 0.449 1 1v7zM20.992 15h-1v-5h1v5zM7.003 9h2.998v7h-2.998zM11 9h2.998v7h-2.998zM3.007 11v3c0 1.1 0.674 2 1.499 2h1.498v-7h-1.498c-0.825 0-1.499 0.9-1.499 2z"></path>
</symbol>
<symbol id="icon-battery-full" viewBox="0 0 24 24">
<path d="M20.82 8c-0.412-1.164-1.523-2-2.826-2h-14.987c-1.653 0-2.997 1.346-2.997 3v7c0 1.654 1.344 3 2.997 3h14.987c1.303 0 2.414-0.836 2.826-2h2.17v-9h-2.17zM18.994 16c0 0.551-0.449 1-1 1h-14.987c-0.552 0-0.999-0.449-0.999-1v-7c0-0.551 0.447-1 0.999-1h14.987c0.551 0 1 0.449 1 1v7zM20.992 15h-1v-5h1v5zM7.003 9h2.998v7h-2.998zM11 9h2.998v7h-2.998zM16.496 9h-1.5v7h1.5c0.824 0 1.498-0.9 1.498-2v-3c0-1.1-0.674-2-1.498-2zM3.007 11v3c0 1.1 0.674 2 1.499 2h1.498v-7h-1.498c-0.825 0-1.499 0.9-1.499 2z"></path>
</symbol>
<symbol id="icon-user" viewBox="0 0 18 18">
<path d="M13.714 7.654l-0.001 0c0.182-0.519 0.286-1.073 0.286-1.654 0-2.761-2.238-5-5-5s-5 2.239-5 5c0 0.581 0.104 1.135 0.286 1.654v-0c-1.948 0.991-3.286 3.010-3.286 5.345v3c0 0.553 0.448 1.001 1.001 1.001h13.997c0.553 0 1.001-0.448 1.001-1.001v-3c0-2.336-1.337-4.354-3.286-5.345zM9 3c1.654 0 3 1.346 3 3s-1.346 3-3 3c-1.654 0-3-1.346-3-3s1.346-3 3-3zM15 15h-12v-2.001c0-1.604 0.952-2.987 2.318-3.624 0.914 0.997 2.223 1.625 3.682 1.625s2.768-0.628 3.682-1.625c1.366 0.636 2.318 2.020 2.318 3.624v2.001z"></path>
</symbol>
<symbol id="icon-users" viewBox="0 0 18 18">
<path d="M14.6 7h-0.14c0.341-0.589 0.54-1.27 0.54-2 0-2.209-1.791-4-4-4s-4 1.791-4 4c-2.209 0-4 1.791-4 4 0 0.729 0.198 1.411 0.54 2h-0.14c-1.425 0.638-2.4 2.005-2.4 3.463v1.537c0 0.351 0.554 1 0.969 1h10.156c0.415 0 0.875-0.649 0.875-1v-1.537c0-0.509-0.125-1.004-0.34-1.463h3.465c0.415 0 0.875-0.649 0.875-1v-1.537c0-1.458-0.975-2.825-2.4-3.463zM11 3c1.103 0 2 0.897 2 2s-0.897 2-2 2c-0.211 0-0.411-0.042-0.602-0.103-0.326-0.526-0.77-0.969-1.296-1.295-0.061-0.191-0.103-0.391-0.103-0.602 0-1.103 0.897-2 2-2zM7 7c1.105 0 2 0.896 2 2s-0.896 2-2 2c-0.988 0-1.805-0.719-1.966-1.661-0.021-0.11-0.034-0.222-0.034-0.339 0-1.105 0.896-2 2-2zM11 15h-8v-0.537c0-0.543 0.356-1.107 0.898-1.463h6.203c0.542 0.356 0.898 0.92 0.898 1.463v0.537zM15 11h-4.54c0.341-0.589 0.54-1.27 0.54-2h3.102c0.542 0.356 0.898 0.92 0.898 1.463v0.537z"></path>
</symbol>
<symbol id="icon-fast-forward" viewBox="0 0 18 18">
<path d="M17.569 8.246l-10.569-6.246c-0.552 0-1 0.448-1 1v1.954l-5-2.954c-0.552 0-1 0.448-1 1v12c0 0.552 0.448 1 1 1l5-2.955v1.955c0 0.552 0.448 1 1 1l10.569-6.246c0.267-0.158 0.431-0.444 0.431-0.754s-0.164-0.597-0.431-0.754zM6 10.722l-4 2.364v-8.172l4 2.364v3.444zM8 13.086v-8.172l6.915 4.086-6.915 4.086z"></path>
</symbol>
<symbol id="icon-cloud" viewBox="0 0 32 32">
<path d="M32 21c0 3.866-3.134 7-7 7h-18v-0.025c-3.908-0.258-7-3.502-7-7.475 0-2.473 1.202-4.659 3.048-6.025-0.015-0.159-0.048-0.313-0.048-0.475 0-2.762 2.239-5 5-5 0.961 0 1.851 0.285 2.613 0.755 1.303-3.365 4.563-5.755 8.387-5.755 4.971 0 9 4.029 9 9 0 0.551-0.057 1.086-0.152 1.609 2.445 1.092 4.152 3.54 4.152 6.391z"></path>
</symbol>
<symbol id="icon-location" viewBox="0 0 32 32">
<path d="M15.938 32c0 0-9.938-14.062-9.938-20.062 0-11.813 9.938-11.938 9.938-11.938s10.062 0.125 10.062 11.875c0 6.187-10.062 20.125-10.062 20.125zM16 6c-2.209 0-4 1.791-4 4s1.791 4 4 4 4-1.791 4-4-1.791-4-4-4z"></path>
</symbol>
<symbol id="icon-checkmark" viewBox="0 0 32 32">
<path d="M31.706 7.133l-2.839-2.839c-0.393-0.393-1.026-0.393-1.419 0l-14.515 15.324-8.32-8.324c-0.397-0.397-1.041-0.397-1.438 0l-2.876 2.878c-0.397 0.396-0.397 1.040 0 1.438l11.833 12.108c0.229 0.23 0.54 0.309 0.839 0.27 0.309 0.046 0.631-0.032 0.868-0.27l17.867-19.165c0.392-0.392 0.392-1.028 0-1.42z"></path>
</symbol>
<symbol id="icon-cancel" viewBox="0 0 32 32">
<path d="M30.721 6.774l-9.197 9.253 9.197 9.198c0.385 0.384 0.385 1.007 0 1.392l-4.176 4.175c-0.383 0.385-1.006 0.385-1.391 0l-9.182-9.182-9.127 9.182c-0.384 0.385-1.007 0.385-1.392 0l-4.175-4.175c-0.384-0.385-0.384-1.008 0-1.392l9.127-9.182-9.126-9.126c-0.384-0.384-0.384-1.007 0-1.392l4.175-4.175c0.384-0.385 1.007-0.385 1.392 0l9.11 9.11 9.199-9.253c0.385-0.385 1.008-0.385 1.391 0l4.176 4.175c0.383 0.385 0.383 1.008-0.001 1.392z"></path>
</symbol>
<symbol id="icon-radio-unchecked" viewBox="0 0 32 32">
<path d="M16 0c-8.837 0-16 7.163-16 16s7.163 16 16 16 16-7.163 16-16-7.163-16-16-16zM16 28c-6.627 0-12-5.373-12-12s5.373-12 12-12c6.627 0 12 5.373 12 12s-5.373 12-12 12z"></path>
</symbol>
</defs>
</svg>
